<svg xmlns="http://www.w3.org/2000/svg" width="384" height="48" viewBox="0 0 384 48">
  <!-- 12 frames, 32x48 each -->
  <!-- Frame 0 -->
  <rect x="10" y="40" width="12" height="4" fill="#c35d1f"/>
  <rect x="12" y="28" width="8" height="12" fill="#ef8f2e"/>
  <rect x="14" y="24" width="4" height="8" fill="#ffd46a"/>
  <!-- Frame 1 -->
  <rect x="42" y="40" width="12" height="4" fill="#c35d1f"/>
  <rect x="43" y="24" width="10" height="16" fill="#f1932f"/>
  <rect x="46" y="19" width="4" height="9" fill="#ffd86f"/>
  <!-- Frame 2 -->
  <rect x="74" y="40" width="12" height="4" fill="#c35d1f"/>
  <rect x="75" y="20" width="10" height="20" fill="#ee8d2d"/>
  <rect x="78" y="14" width="4" height="10" fill="#ffe07a"/>
  <!-- Frame 3 -->
  <rect x="106" y="40" width="12" height="4" fill="#c35d1f"/>
  <rect x="108" y="22" width="8" height="18" fill="#f49933"/>
  <rect x="110" y="16" width="4" height="10" fill="#ffd96f"/>
  <!-- Frame 4 -->
  <rect x="138" y="40" width="12" height="4" fill="#c35d1f"/>
  <rect x="139" y="18" width="10" height="22" fill="#f09a31"/>
  <rect x="142" y="11" width="4" height="11" fill="#ffe27d"/>
  <!-- Frame 5 -->
  <rect x="170" y="40" width="12" height="4" fill="#c35d1f"/>
  <rect x="172" y="24" width="8" height="16" fill="#f0912f"/>
  <rect x="174" y="19" width="4" height="9" fill="#ffd66a"/>
  <!-- Frame 6 -->
  <rect x="202" y="40" width="12" height="4" fill="#c35d1f"/>
  <rect x="203" y="28" width="10" height="12" fill="#ef8f2e"/>
  <rect x="206" y="24" width="4" height="8" fill="#ffd46a"/>
  <!-- Frame 7 -->
  <rect x="234" y="40" width="12" height="4" fill="#c35d1f"/>
  <rect x="235" y="24" width="10" height="16" fill="#f1932f"/>
  <rect x="238" y="18" width="4" height="10" fill="#ffd86f"/>
  <!-- Frame 8 -->
  <rect x="266" y="40" width="12" height="4" fill="#c35d1f"/>
  <rect x="268" y="20" width="8" height="20" fill="#ee8d2d"/>
  <rect x="270" y="13" width="4" height="11" fill="#ffe07a"/>
  <!-- Frame 9 -->
  <rect x="298" y="40" width="12" height="4" fill="#c35d1f"/>
  <rect x="299" y="23" width="10" height="17" fill="#f39a34"/>
  <rect x="302" y="17" width="4" height="10" fill="#ffdd74"/>
  <!-- Frame 10 -->
  <rect x="330" y="40" width="12" height="4" fill="#c35d1f"/>
  <rect x="331" y="18" width="10" height="22" fill="#f09a31"/>
  <rect x="334" y="10" width="4" height="12" fill="#ffe381"/>
  <!-- Frame 11 -->
  <rect x="362" y="40" width="12" height="4" fill="#c35d1f"/>
  <rect x="364" y="25" width="8" height="15" fill="#ef902e"/>
  <rect x="366" y="20" width="4" height="8" fill="#ffd46a"/>
</svg>
